<?xml version="1.0" encoding="UTF-8"?>
<svg width="163px" height="163px" viewBox="0 0 163 163" version="1.1" xmlns="http://www.w3.org/2000/svg" xmlns:xlink="http://www.w3.org/1999/xlink">
    <title>icon</title>
    <g id="PGXN-Logo" stroke="none" stroke-width="1" fill="none" fill-rule="evenodd">
        <g id="icon">
            <rect id="Background" fill="#608EAA" x="0" y="0" width="163" height="163"></rect>
            <path d="M114.289,0 L114.373375,0.0965 L114.373375,0.0965 L114.456,0.193 L114.457,0.193 L114.457842,0.193994643 L114.88,0 L140.476,0 L148.148,13.288 L129.267,26.343 L129.267,26.342 L129.265,26.343 L129.617736,27.3960759 C130.651404,30.5620068 131.491001,33.7876379 132.131049,37.0559902 L132.337,38.147 L132.384,38.408 L132.338,38.147 L154.992,40.294 L154.992,66.335 L132.137,68.198 L132.136,68.198 C131.429636,71.7998182 130.469554,75.376843 129.252747,78.9080376 L128.88,79.965 L128.881,79.966 L128.881,79.965 L147.417,93.145 L134.396,115.697 L113.667,105.88 L113.54,105.82 L128.688,79.83 L128.688,79.829 L113.54,105.82 L113.667,105.88 C111.208818,108.702727 108.583694,111.327107 105.811162,113.741119 L104.975,114.459 L104.380007,114.956986 L104.975,114.458 L114.432,135.127 L91.879,148.148 L78.826,129.267 C75.3223636,130.463364 71.7435207,131.420884 68.1112592,132.132049 L67.02,132.338 L64.874,154.993 L38.832,154.993 L36.97,132.136 L36.958,131.993 L36.958,131.993 L36.97,132.136 C33.3681818,131.429636 29.7919835,130.469554 26.2609391,129.252747 L25.203,128.88 L12.022,147.418 L0,140.477 L0,0 L114.289,0 Z M30.036,52.479 C26.172,50.225 21.647,50.791 19.923,53.743 L19.923,53.743 L18.992,55.339 C17.268,58.292 19.002,62.513 22.864,64.765 L22.864,64.765 L56.586,84.451 C60.449,86.705 64.976,86.14 66.699,83.187 L66.699,83.187 L67.631,81.593 C69.354,78.642 67.619,74.419 63.758,72.163 L63.758,72.163 Z M39.309,36.598 C35.445,34.344 30.918,34.909 29.194,37.861 L29.194,37.861 L28.263,39.457 C26.539,42.407 28.272,46.628 32.136,48.882 L32.136,48.882 L65.857,68.566 C69.718,70.824 74.247,70.257 75.972,67.304 L75.972,67.304 L76.904,65.71 C78.627,62.757 76.89,58.536 73.029,56.28 L73.029,56.28 Z M48.578,20.712 C44.714,18.461 40.188,19.026 38.464,21.977 L38.464,21.977 L37.534,23.574 C35.811,26.526 37.544,30.746 41.408,33 L41.408,33 L75.129,52.683 C78.99,54.939 83.519,54.375 85.242,51.422 L85.242,51.422 L86.174,49.826 C87.899,46.874 86.162,42.653 82.299,40.398 L82.299,40.398 Z" id="White-Gear" fill="#FFFFFF" fill-rule="nonzero"></path>
        </g>
    </g>
</svg>